# AST/ASF file generated using VICON BodyLanguage
# -----------------------------------------------
:version 1.10
:name VICON
:units
  mass 1.0
  length 0.45
  angle deg
:documentation
   .ast/.asf automatically generated from VICON data using
   VICON BodyBuilder and BodyLanguage model FoxedUp or BRILLIANT.MOD
:root
   order TX TY TZ RX RY RZ
   axis XYZ
   position 0 0 0  
   orientation 0 0 0 
:bonedata
  begin
     id 1 
     name lhipjoint
     direction 0.606768 -0.715223 0.346827 
     length 2.41543 
     axis 0 0 0  XYZ
  end
  begin
     id 2 
     name lfemur
     direction 0.34202 -0.939693 0  
     length 7.2778  
     axis 0 0 20  XYZ
    dof rx ry rz
    limits (-160.0 20.0)
           (-70.0 70.0)
           (-60.0 70.0)
  end
  begin
     id 3 
     name ltibia
     direction 0.34202 -0.939693 0   
     length 7.61811   
     axis 0 0 20   XYZ
    dof rx
    limits (-10.0 170.0)
  end
  begin
     id 4 
     name lfoot
     direction 0.0823924 -0.226371 0.97055   
     length 2.33618   
     axis -90 7.62852e-016 20   XYZ
    dof rx rz
    limits (-45.0 90.0)
           (-70.0 20.0)
  end
  begin
     id 5 
     name ltoes
     direction 1.53554e-011 -4.21934e-011 1   
     length 1.17015   
     axis -90 7.62852e-016 20   XYZ
    dof rx
    limits (-90.0 20.0)
  end
  begin
     id 6 
     name rhipjoint
     direction -0.6077 -0.714582 0.346516   
     length 2.4176  
     axis 0 0 0  XYZ 
  end
  begin
     id 7 
     name rfemur
     direction -0.34202 -0.939693 0   
     length 7.28127   
     axis 0 0 -20   XYZ
    dof rx ry rz
    limits (-160.0 20.0)
           (-70.0 70.0)
           (-70.0 60.0)
  end
  begin
     id 8 
     name rtibia
     direction -0.34202 -0.939693 0   
     length 7.77648   
     axis 0 0 -20   XYZ
    dof rx
    limits (-10.0 170.0)
 end
 begin
     id 9 
     name rfoot
     direction -0.0809463 -0.222398 0.97159   
     length 2.37533  
     axis -90 -7.62852e-016 -20   XYZ
    dof rx rz
    limits (-45.0 90.0)
           (-20.0 70.0)
  end
  begin
     id 10 
     name rtoes
     direction -1.53568e-011 -4.21714e-011 1   
     length 1.18972   
     axis -90 -7.62852e-016 -20   XYZ
    dof rx
    limits (-90.0 20.0)
  end
  begin
     id 11 
     name lowerback
     direction 0.010968 0.991932 -0.126297   
     length 2.21698   
     axis 0 0 0   XYZ
    dof rx ry rz
    limits (-20.0 45.0)
           (-30.0 30.0)
           (-30.0 30.0)
  end
  begin
     id 12 
     name upperback
     direction 0.0167007 0.997503 -0.0686276   
     length 2.22371   
     axis 0 0 0   XYZ
    dof rx ry rz
    limits (-20.0 45.0)
           (-30.0 30.0)
           (-30.0 30.0)
  end
  begin
     id 13 
     name thorax
     direction 0.0111721 0.999885 -0.0102878   
     length 2.25242   
     axis 0 0 0   XYZ
    dof rx ry rz
    limits (-20.0 45.0)
           (-30.0 30.0)
           (-30.0 30.0)
  end
  begin
     id 14 
     name lowerneck
     direction -0.0120265 0.990428 0.137508   
     length 1.57674   
     axis 0 0 0   XYZ
    dof rx ry rz
    limits (-20.0 45.0)
           (-30.0 30.0)
           (-30.0 30.0)
  end
  begin
     id 15 
     name upperneck
     direction 0.0175669 0.998907 0.0433089   
     length 1.5618   
     axis 0 0 0   XYZ
    dof rx ry rz
    limits (-20.0 45.0)
           (-30.0 30.0)
           (-30.0 30.0)
  end
  begin
     id 16
     name head
     direction 0.00754609 0.99997 0.00185367  
     length 1.60579  
     axis 0 0 0   XYZ
    dof rx ry rz
    limits (-20.0 45.0)
           (-30.0 30.0)
           (-30.0 30.0)
  end
  begin
     id 17 
     name lclavicle
     direction 0.885866 0.429166 -0.176231  
     length 3.44967  
     axis 0 0 0   XYZ
    dof ry rz
    limits (-20.0 10.0)
           (0.0 20.0)
  end
  begin
     id 18 
     name lhumerus
     direction 1 -4.48973e-011 -1.90255e-027   
     length 5.20607   
     axis 180 -30 -90   XYZ
    dof rx ry rz
    limits (-60.0 90.0)
           (-90.0 90.0)
           (-90.0 90.0)
  end
  begin
     id 19
     name lradius
     direction 1 -4.48956e-011 9.87925e-027   
     length 3.39961   
     axis 180 -30 -90   XYZ
    dof rx
    limits (-10.0 170.0)
  end
  begin
     id 20
     name lwrist
     direction 1 -4.48985e-011 1.73247e-026   
     length 1.6998   
     axis -9.60847e-015 90 90   XYZ
    dof ry
    limits (-180.0 0.0)
 end
  begin
     id 21 
     name lhand
     direction 1 -4.48798e-011 3.46119e-026   
     length 0.519693   
     axis -2.21073e-014 90 90   XYZ
    dof rx rz
    limits (-90.0 90.0)
           (-45.0 45.0)
  end
  begin
     id 22 
     name lfingers
     direction 1 -4.48938e-011 6.92797e-026   
     length 0.41899   
     axis -4.42155e-014 90 90   XYZ
    dof rx
    limits (0.0 90.0)
  end
  begin
     id 23
     name lthumb
     direction 0.707107 -6.34952e-011 0.707107   
     length 0.601588   
     axis -90 45 6.0103e-014   XYZ
    dof rx rz
    limits (-45.0 45.0)
           (-45.0 45.0)
  end
  begin
     id 24 
     name rclavicle
     direction -0.866736 0.456792 -0.200276   
     length 3.45032  
     axis 0 0 0   XYZ 
    dof ry rz
    limits (-10.0 20.0)
           (-20.0 0.0)
  end
  begin
     id 25 
     name rhumerus
     direction -1 -4.4897e-011 8.65094e-028  
     length 5.32214   
     axis 180 30 90   XYZ
    dof rx ry rz
    limits (-90.0 60.0)
           (-90.0 90.0)
           (-90.0 90.0)
  end
  begin
     id 26 
     name rradius
     direction -1 -4.48987e-011 1.08427e-026   
     length 3.51208   
     axis 180 30 90   XYZ
    dof rx
    limits (-10.0 170.0)
  end
  begin
     id 27 
     name rwrist
     direction -1 -4.48961e-011 1.73222e-026   
     length 1.75604   
     axis -9.60847e-015 -90 -90   XYZ
    dof ry
    limits (-180.0 0.0)
  end
  begin
     id 28
     name rhand
     direction -1 -4.48895e-011 3.46314e-026   
     length 0.586681   
     axis -2.21073e-014 -90 -90   XYZ
    dof rx rz
    limits (-90.0 90.0)
           (-45.0 45.0)
  end
  begin
     id 29
     name rfingers
     direction -1 -4.48968e-011 6.92916e-026   
     length 0.472997   
     axis -4.42155e-014 -90 -90   XYZ
    dof rx
    limits (0.0 90.0)
  end
  begin
     id 30
     name rthumb
     direction -0.707107 -6.34848e-011 0.707107   
     length 0.679133   
     axis -90 -45 -6.0103e-014   XYZ
    dof rx rz
    limits (-45.0 45.0)
           (-45.0 45.0)
  end
:hierarchy
  begin
    root lhipjoint rhipjoint lowerback
    lhipjoint lfemur
    lfemur ltibia
    ltibia lfoot
    lfoot ltoes
    rhipjoint rfemur
    rfemur rtibia
    rtibia rfoot
    rfoot rtoes
    lowerback upperback
    upperback thorax
    thorax lowerneck lclavicle rclavicle
    lowerneck upperneck
    upperneck head
    lclavicle lhumerus
    lhumerus lradius
    lradius lwrist
    lwrist lhand lthumb
    lhand lfingers
    rclavicle rhumerus
    rhumerus rradius
    rradius rwrist
    rwrist rhand rthumb
    rhand rfingers
  end

#!OML:ASF H:\Dans Jumps\Project 1\Capture day 1\Session 1\subject.ASF
:FULLY-SPECIFIED
:DEGREES
21
root 0.349061 17.6053 -13.9064 7.06055 -0.631854 -1.33437
lowerback -2.8692 -0.400928 -0.252893
upperback 2.42017 -0.586385 1.66316
thorax 4.12362 -0.32542 1.82022
lowerneck -13.7968 0.31241 -1.8131
upperneck 29.3351 0.585012 1.12292
head 11.8809 0.200756 0.814463
rclavicle -9.88954e-015 2.18663e-015
rhumerus -14.7883 -6.72649 -87.6731
rradius 25.6047
rwrist 29.7964
rhand -20.4614 -25.7837
rfingers 7.12502
rthumb 5.89438 -55.6817
lclavicle -9.88954e-015 2.18663e-015
lhumerus -9.85206 -14.2446 92.7464
lradius 21.1173
lwrist 6.04596
lhand -27.4227 -6.29312
lfingers 7.12502
lthumb -0.828365 23.685
rfemur -12.154 -2.55681 19.2278
rtibia 19.3797
rfoot -13.3252 -2.39399
rtoes 12.1634
lfemur -10.1686 7.05369 -17.8926
ltibia 16.3625
lfoot -9.91811 7.54227
ltoes -2.82127
22
root 0.350353 17.6032 -13.9059 7.0089 -0.654606 -1.32852
lowerback -2.81667 -0.388097 -0.248813
upperback 2.46346 -0.569298 1.65326
thorax 4.13803 -0.316938 1.80905
lowerneck -13.7904 0.311077 -1.79967
upperneck 29.3648 0.579977 1.12079
head 11.8915 0.199544 0.81087
rclavicle 2.98177e-016 -3.77691e-015
rhumerus -14.7241 -6.73831 -87.6979
rradius 25.615
rwrist 29.798
rhand -20.5649 -25.7097
rfingers 7.12502
rthumb 5.79446 -55.6105
lclavicle 2.98177e-016 -3.77691e-015
lhumerus -9.98095 -14.2886 92.8516
lradius 21.1656
lwrist 6.05701
lhand -27.5116 -6.4182
lfingers 7.12502
lthumb -0.914205 23.5596
rfemur -12.1278 -2.54026 19.2151
rtibia 19.4375
rfoot -13.349 -2.40521
rtoes 12.0585
lfemur -10.1325 7.07522 -17.9004
ltibia 16.4136
lfoot -9.94091 7.54737
ltoes -2.85774
23
root 0.351485 17.6013 -13.9053 6.96335 -0.677638 -1.32121
lowerback -2.76642 -0.376601 -0.248774
upperback 2.50622 -0.553869 1.64489
thorax 4.1533 -0.309424 1.8016
lowerneck -13.783 0.310212 -1.79644
upperneck 29.3919 0.576679 1.12414
head 11.9007 0.198686 0.811301
rclavicle 8.44835e-016 3.37934e-015
rhumerus -14.6745 -6.75613 -87.7222
rradius 25.6323
rwrist 29.801
rhand -20.6486 -25.6719
rfingers 7.12502
rthumb 5.71367 -55.5748
lclavicle 8.44835e-016 3.37934e-015
lhumerus -10.1151 -14.3034 92.9604
lradius 21.1985
lwrist 6.07003
lhand -27.5714 -6.51969
lfingers 7.12502
lthumb -0.97199 23.4578
rfemur -12.1091 -2.51997 19.2012
rtibia 19.4969
rfoot -13.3752 -2.41862
rtoes 11.9652
lfemur -10.1006 7.09766 -17.9096
ltibia 16.4594
lfoot -9.9632 7.5505
ltoes -2.89044
24
root 0.352562 17.5995 -13.9048 6.92649 -0.695131 -1.31083
lowerback -2.72304 -0.366911 -0.25025
upperback 2.54695 -0.540791 1.63636
thorax 4.17045 -0.303117 1.79466
lowerneck -13.7791 0.307821 -1.79624
upperneck 29.4204 0.57204 1.12762
head 11.9113 0.196905 0.812147
rclavicle -5.1684e-015 -1.78906e-015
rhumerus -14.6407 -6.79415 -87.7438
rradius 25.6492
rwrist 29.809
rhand -20.7226 -25.6466
rfingers 7.12502
rthumb 5.64221 -55.5515
lclavicle -5.1684e-015 -1.78906e-015
lhumerus -10.2605 -14.2858 93.073
lradius 21.2261
lwrist 6.08754
lhand -27.582 -6.56519
lfingers 7.12502
lthumb -0.982154 23.4123
rfemur -12.0997 -2.50495 19.1845
rtibia 19.5565
rfoot -13.402 -2.43239
rtoes 11.8765
lfemur -10.0768 7.11723 -17.9227
ltibia 16.4999
lfoot -9.98405 7.54926
ltoes -2.91984
25
root 0.353507 17.5979 -13.9043 6.89868 -0.707795 -1.29844
lowerback -2.68625 -0.359083 -0.25472
upperback 2.58428 -0.530117 1.62939
thorax 4.18795 -0.298105 1.79082
lowerneck -13.7697 0.304145 -1.8027
upperneck 29.4454 0.567092 1.13162
head 11.9192 0.194335 0.81424
rclavicle 6.16232e-015 -9.74045e-015
rhumerus -14.624 -6.85001 -87.7616
rradius 25.6649
rwrist 29.8193
rhand -20.7686 -25.6481
rfingers 7.12502
rthumb 5.59773 -55.5541
lclavicle 6.16232e-015 -9.74045e-015
lhumerus -10.4207 -14.2489 93.1932
lradius 21.2335
lwrist 6.08735
lhand -27.5913 -6.59335
lfingers 7.12502
lthumb -0.991228 23.3841
rfemur -12.0988 -2.49245 19.1664
rtibia 19.6135
rfoot -13.4279 -2.44853
rtoes 11.7909
lfemur -10.062 7.13324 -17.9382
ltibia 16.5364
lfoot -10.0016 7.54484
ltoes -2.9473
26
root 0.354382 17.5966 -13.9037 6.87922 -0.715876 -1.28743
lowerback -2.65697 -0.352163 -0.256457
upperback 2.61759 -0.520813 1.62335
thorax 4.20558 -0.293687 1.78629
lowerneck -13.7627 0.300664 -1.80506
upperneck 29.4752 0.563479 1.12877
head 11.9297 0.191924 0.813305
rclavicle 9.93923e-016 -9.34288e-015
rhumerus -14.6294 -6.92573 -87.7759
rradius 25.6795
rwrist 29.8291
rhand -20.7879 -25.6744
rfingers 7.12502
rthumb 5.57909 -55.5809
lclavicle 9.93923e-016 -9.34288e-015
lhumerus -10.5986 -14.1995 93.3201
lradius 21.2213
lwrist 6.07801
lhand -27.6067 -6.61129
lfingers 7.12502
lthumb -1.00609 23.3661
rfemur -12.1033 -2.48408 19.1506
rtibia 19.6646
rfoot -13.4518 -2.46539
rtoes 11.7115
lfemur -10.0559 7.1455 -17.9526
ltibia 16.5707
lfoot -10.0171 7.53984
ltoes -2.96609
27
root 0.35527 17.5954 -13.903 6.86833 -0.719577 -1.27906
lowerback -2.63566 -0.345981 -0.253348
upperback 2.64615 -0.51274 1.61823
thorax 4.2228 -0.289719 1.77986
lowerneck -13.7594 0.295794 -1.80472
upperneck 29.5131 0.558737 1.12098
head 11.9442 0.188634 0.809986
rclavicle -9.44227e-016 -4.57205e-015
rhumerus -14.654 -7.02242 -87.7861
rradius 25.6874
rwrist 29.8373
rhand -20.8012 -25.7068
rfingers 7.12502
rthumb 5.56626 -55.6137
lclavicle -9.44227e-016 -4.57205e-015
lhumerus -10.7973 -14.1165 93.4529
lradius 21.1942
lwrist 6.03782
lhand -27.6155 -6.62334
lfingers 7.12502
lthumb -1.01455 23.354
rfemur -12.1118 -2.48181 19.1381
rtibia 19.7063
rfoot -13.471 -2.4798
rtoes 11.6441
lfemur -10.0588 7.15399 -17.9648
ltibia 16.6042
lfoot -10.0323 7.53465
ltoes -2.97739
